<?xml version="1.0" standalone="no"?>
<!DOCTYPE svg PUBLIC "-//W3C//DTD SVG 20010904//EN"
 "http://www.w3.org/TR/2001/REC-SVG-20010904/DTD/svg10.dtd">
<svg version="1.0" xmlns="http://www.w3.org/2000/svg"
 width="1024.000000pt" height="1024.000000pt" viewBox="0 0 1024.000000 1024.000000"
 preserveAspectRatio="xMidYMid meet">

<g transform="translate(0.000000,1024.000000) scale(0.100000,-0.100000)"
fill="#000000" stroke="none">
<path d="M2097 5700 c-83 -25 -144 -116 -133 -198 12 -87 67 -145 154 -162 63
-12 111 1 159 43 148 130 10 374 -180 317z"/>
<path d="M7845 5693 c-46 -24 -66 -45 -86 -88 -60 -129 25 -265 165 -265 76 0
138 37 172 102 31 60 9 173 -43 220 -51 46 -151 61 -208 31z"/>
<path d="M8265 5668 c-3 -8 -4 -344 -3 -748 l3 -735 150 0 150 0 0 227 c0 175
3 224 12 216 7 -5 87 -108 179 -229 l168 -219 178 0 c98 0 178 4 178 9 0 4
-17 30 -38 57 -126 161 -378 482 -391 497 -15 18 -2 32 204 232 l220 214 -182
1 -181 0 -153 -160 c-84 -88 -159 -169 -166 -180 -8 -11 -17 -20 -21 -20 -4 0
-7 190 -7 422 l0 423 -148 3 c-113 2 -149 0 -152 -10z"/>
<path d="M1260 5209 c-30 -5 -91 -27 -135 -48 -136 -67 -237 -186 -279 -330
-18 -62 -21 -212 -5 -281 52 -228 283 -400 537 -400 152 0 268 46 374 151 75
74 128 169 128 232 l0 37 -145 0 -145 0 -17 -27 c-48 -78 -122 -123 -203 -123
-53 0 -127 30 -165 67 -55 53 -75 104 -75 193 0 98 13 143 58 192 106 118 291
106 377 -24 l26 -39 142 3 142 3 -1 37 c-4 128 -177 299 -347 344 -70 18 -200
25 -267 13z"/>
<path d="M3885 5204 c-191 -38 -353 -186 -401 -368 -8 -28 -14 -98 -14 -156 0
-84 5 -118 24 -171 48 -137 137 -233 281 -304 89 -45 166 -59 285 -52 117 6
203 36 291 99 79 56 98 77 144 153 52 87 75 171 75 274 0 191 -76 343 -219
440 -74 51 -119 69 -209 87 -90 17 -164 17 -257 -2z m231 -269 c89 -37 154
-137 154 -240 0 -119 -45 -199 -140 -248 -48 -25 -63 -28 -122 -24 -146 9
-242 116 -241 267 0 78 18 123 69 180 76 84 178 108 280 65z"/>
<path d="M4983 5209 c-120 -20 -235 -100 -279 -194 -18 -39 -24 -67 -24 -125
0 -92 20 -140 80 -194 52 -47 114 -75 245 -111 161 -44 196 -56 216 -76 41
-41 8 -110 -63 -129 -81 -22 -163 11 -198 80 l-21 41 -137 -3 -137 -3 3 -45
c6 -96 84 -200 187 -250 92 -44 266 -63 386 -40 118 22 230 102 269 191 32 76
33 197 1 263 -44 90 -123 131 -376 197 -110 28 -155 44 -167 60 -24 29 -22 53
6 86 22 25 30 28 89 28 73 0 111 -20 135 -69 l13 -27 142 3 142 3 -1 37 c-2
82 -95 198 -193 242 -92 41 -206 54 -318 35z"/>
<path d="M6121 5210 c-36 -8 -90 -31 -183 -78 -5 -2 -8 10 -8 27 l0 31 -140 0
-140 0 2 -502 3 -503 149 0 149 0 -2 271 c-1 150 1 299 5 333 11 103 68 164
151 165 70 1 109 -19 141 -73 l27 -46 3 -325 2 -325 146 -3 145 -3 -3 388 c-3
381 -4 389 -27 448 -30 77 -107 155 -177 179 -59 20 -183 28 -243 16z"/>
<path d="M7184 5206 c-63 -15 -108 -34 -156 -68 l-28 -19 0 36 0 36 -137 -3
-138 -3 0 -500 0 -500 150 0 150 0 5 330 c4 288 7 334 22 362 52 95 176 109
247 28 16 -19 35 -51 40 -72 7 -23 11 -162 11 -346 l0 -308 148 3 147 3 0 365
c0 349 -1 368 -22 435 -46 147 -140 218 -306 229 -44 4 -95 0 -133 -8z"/>
<path d="M2000 4685 l0 -506 148 3 147 3 3 503 2 502 -150 0 -150 0 0 -505z"/>
<path d="M2410 5184 c0 -11 315 -911 345 -987 7 -16 23 -17 187 -15 l180 3 23
65 c13 36 56 155 95 265 40 110 107 299 150 420 43 121 81 228 85 238 7 16 -4
17 -146 17 l-154 0 -89 -262 c-49 -145 -103 -301 -119 -347 l-30 -85 -113 337
c-62 185 -115 341 -119 347 -7 11 -295 15 -295 4z"/>
<path d="M7780 4685 l0 -506 148 3 147 3 3 503 2 502 -150 0 -150 0 0 -505z"/>
<path d="M3296 3611 c-11 -17 35 -61 63 -61 35 0 71 26 71 51 0 25 -26 25 -40
-1 -13 -25 -35 -26 -52 -2 -15 19 -35 26 -42 13z"/>
<path d="M929 3505 c-27 -14 -59 -78 -59 -116 0 -69 67 -134 129 -125 96 15
134 155 61 228 -32 32 -86 37 -131 13z m101 -45 c14 -14 20 -33 20 -63 0 -58
-22 -87 -65 -87 -43 0 -65 29 -65 87 0 50 26 83 65 83 14 0 34 -9 45 -20z"/>
<path d="M1170 3390 l0 -130 45 0 c55 0 110 21 124 48 31 58 -4 102 -79 102
l-50 0 0 35 0 35 65 0 c58 0 65 2 65 20 0 18 -7 20 -85 20 l-85 0 0 -130z
m134 -32 c15 -24 -12 -49 -55 -51 -32 -2 -34 0 -37 36 l-3 38 42 -3 c26 -2 46
-9 53 -20z"/>
<path d="M1400 3514 c0 -3 21 -45 47 -93 41 -76 46 -91 34 -105 -7 -9 -22 -16
-32 -16 -12 0 -19 -7 -19 -20 0 -43 79 -9 105 46 18 38 65 172 65 186 0 4 -8
8 -18 8 -14 0 -24 -18 -41 -71 l-23 -71 -18 30 c-11 17 -28 49 -40 71 -13 27
-27 41 -40 41 -11 0 -20 -2 -20 -6z"/>
<path d="M1650 3463 c0 -32 6 -69 13 -83 16 -32 77 -53 112 -40 24 9 25 8 25
-36 0 -41 2 -45 23 -42 21 3 22 7 25 131 l3 127 -26 0 c-24 0 -25 -2 -25 -65
0 -55 -3 -66 -21 -75 -30 -16 -68 -4 -79 26 -6 14 -10 45 -10 70 0 37 -3 44
-20 44 -18 0 -20 -7 -20 -57z"/>
<path d="M1956 3399 c-25 -66 -46 -125 -46 -130 0 -5 9 -9 19 -9 13 0 23 11
31 35 11 34 13 35 61 35 48 0 51 -2 65 -35 10 -24 21 -35 35 -35 16 0 19 4 14
18 -4 9 -22 59 -41 110 -44 119 -51 132 -73 132 -14 0 -29 -27 -65 -121z m98
-16 c7 -21 4 -23 -29 -23 -34 0 -37 2 -31 25 3 13 11 37 17 52 l11 28 13 -30
c7 -16 16 -40 19 -52z"/>
<path d="M2200 3390 c0 -123 1 -130 20 -130 18 0 20 7 20 55 0 46 3 55 18 55
11 0 21 -11 27 -32 14 -45 69 -81 114 -74 96 15 134 155 61 228 -61 60 -180
16 -180 -67 0 -8 -9 -15 -20 -15 -18 0 -20 7 -20 55 0 48 -2 55 -20 55 -19 0
-20 -7 -20 -130z m228 74 c18 -12 22 -25 22 -66 0 -62 -19 -88 -66 -88 -41 0
-64 30 -64 81 0 71 57 109 108 73z"/>
<path d="M2572 3393 l3 -128 138 -3 137 -3 0 -24 c0 -18 5 -25 20 -25 17 0 20
7 20 45 0 33 -4 45 -15 45 -12 0 -15 19 -15 110 0 103 -1 110 -20 110 -19 0
-20 -7 -20 -110 l0 -110 -40 0 -40 0 0 110 c0 103 -1 110 -20 110 -19 0 -20
-7 -20 -111 l0 -110 -42 3 -42 3 -1 105 c0 102 -1 105 -23 108 l-23 3 3 -128z"/>
<path d="M2954 3506 c-3 -8 -4 -65 -2 -128 l3 -113 27 -3 c25 -3 31 4 77 95
l50 98 0 -97 c1 -91 2 -98 21 -98 19 0 20 7 20 130 l0 130 -25 0 c-21 0 -32
-14 -75 -100 -28 -55 -51 -100 -53 -100 -1 0 0 45 1 100 4 96 3 100 -17 100
-12 0 -24 -6 -27 -14z"/>
<path d="M3240 3390 l0 -130 28 0 c24 0 32 10 77 97 l50 96 3 -96 c2 -89 4
-97 22 -97 19 0 20 7 20 131 l0 130 -26 -3 c-22 -2 -35 -20 -80 -103 l-54
-100 0 103 c0 95 -1 102 -20 102 -19 0 -20 -7 -20 -130z"/>
<path d="M3639 3513 c-1 -4 -1 -62 0 -128 0 -113 2 -120 21 -123 19 -3 20 2
20 107 l0 111 50 0 49 0 3 -107 c3 -104 4 -108 26 -111 l23 -3 -3 128 -3 128
-92 3 c-51 1 -93 -1 -94 -5z"/>
<path d="M3952 3504 c-74 -52 -66 -191 13 -228 18 -9 40 -16 50 -16 29 0 74
30 90 60 18 35 20 109 3 145 -23 50 -109 72 -156 39z m107 -50 c36 -46 22
-128 -24 -140 -44 -11 -72 3 -85 42 -31 92 54 168 109 98z"/>
<path d="M4200 3391 c0 -124 1 -131 20 -131 17 0 20 7 20 44 l0 45 33 -6 c90
-14 150 78 93 144 -21 24 -32 28 -95 31 l-71 4 0 -131z m132 72 c40 -36 15
-73 -49 -73 l-43 0 0 45 0 45 37 0 c20 0 45 -7 55 -17z"/>
<path d="M4430 3500 c0 -17 7 -20 40 -20 l40 0 0 -110 c0 -103 1 -110 20 -110
19 0 20 7 20 110 l0 110 38 0 c31 0 38 4 38 20 0 19 -7 20 -98 20 -91 0 -98
-1 -98 -20z"/>
<path d="M4724 3483 c-9 -21 -29 -72 -44 -113 -16 -41 -31 -83 -35 -92 -5 -14
-2 -18 14 -18 14 0 25 11 35 35 14 33 17 35 65 35 48 0 50 -1 62 -35 8 -22 20
-35 31 -35 23 0 23 0 -13 100 -17 47 -37 101 -43 120 -19 52 -52 53 -72 3z
m54 -70 l20 -53 -40 0 c-30 0 -39 3 -35 14 3 8 11 32 18 55 7 23 13 40 15 39
1 -2 11 -27 22 -55z"/>
<path d="M4950 3441 c0 -105 -8 -141 -30 -141 -13 0 -17 -5 -13 -21 4 -15 12
-19 32 -17 34 4 50 49 50 146 l1 72 45 0 45 0 0 -110 c0 -103 1 -110 20 -110
19 0 20 7 20 130 l0 130 -85 0 -85 0 0 -79z"/>
<path d="M5320 3390 c0 -123 1 -130 20 -130 19 0 20 7 20 110 l0 110 55 0 55
0 0 -110 c0 -103 1 -110 20 -110 19 0 20 7 20 130 l0 130 -95 0 -95 0 0 -130z"/>
<path d="M5614 3486 c-30 -30 -34 -40 -34 -87 0 -72 26 -114 80 -130 53 -16
100 4 123 54 46 95 -4 197 -96 197 -31 0 -46 -7 -73 -34z m119 -23 c39 -44 27
-138 -19 -149 -58 -15 -94 18 -94 85 0 64 74 106 113 64z"/>
<path d="M5982 3393 l3 -128 40 -3 c45 -4 108 12 122 31 6 6 13 24 17 40 11
44 -29 77 -94 77 l-51 0 3 33 c3 29 6 32 40 35 31 3 40 -2 59 -27 13 -17 26
-31 31 -31 18 0 6 52 -17 75 -21 22 -33 25 -90 25 l-66 0 3 -127z m129 -23
c26 -14 24 -36 -5 -55 -35 -23 -80 -16 -84 13 -2 13 -1 30 2 38 6 16 58 19 87
4z"/>
<path d="M6242 3393 l3 -128 27 -3 c25 -3 31 4 77 95 l50 98 0 -97 c1 -91 2
-98 21 -98 19 0 20 7 20 131 l0 130 -26 -3 c-22 -2 -34 -18 -73 -95 -26 -50
-50 -95 -54 -100 -5 -4 -7 37 -6 92 2 96 1 100 -20 103 -21 3 -22 2 -19 -125z"/>
<path d="M6560 3463 c-1 -77 -14 -130 -39 -157 -29 -31 -30 -96 -1 -96 15 0
20 7 20 25 0 25 1 25 85 25 84 0 85 0 85 -25 0 -18 5 -25 20 -25 17 0 20 7 20
45 0 33 -4 45 -15 45 -12 0 -15 19 -15 110 l0 110 -80 0 -80 0 0 -57z m110
-73 l0 -90 -50 0 c-27 0 -50 1 -50 3 0 1 7 20 15 42 8 22 14 61 15 88 l0 47
35 0 35 0 0 -90z"/>
<path d="M6810 3390 l0 -130 85 0 c78 0 85 2 85 20 0 18 -7 20 -65 20 l-65 0
0 40 0 40 58 0 c46 0 59 3 59 15 0 12 -13 15 -59 15 l-58 0 0 35 0 35 65 0
c58 0 65 2 65 20 0 18 -7 20 -85 20 l-85 0 0 -130z"/>
<path d="M7077 3500 c-57 -45 -60 -154 -6 -206 40 -38 105 -41 142 -6 57 54
50 188 -13 222 -32 17 -95 12 -123 -10z m113 -42 c25 -27 27 -93 4 -126 -19
-28 -74 -30 -98 -3 -22 24 -23 93 -2 126 21 32 67 34 96 3z"/>
<path d="M7330 3400 c0 -66 0 -123 0 -127 0 -5 8 -8 18 -8 15 0 18 13 22 95
l5 95 24 -98 c22 -94 24 -98 49 -95 23 3 28 12 53 103 l27 100 1 -102 c1 -96
2 -103 21 -103 19 0 20 7 20 130 l0 130 -34 0 c-34 0 -34 0 -55 -78 -12 -43
-21 -85 -21 -94 0 -8 -3 -18 -7 -22 -4 -3 -17 34 -29 83 -12 49 -25 94 -28
100 -4 6 -20 11 -37 11 l-29 0 0 -120z"/>
<path d="M7692 3504 c-73 -51 -67 -188 10 -230 31 -18 63 -17 98 1 40 21 60
63 60 126 0 45 -4 55 -34 85 -27 27 -42 34 -73 34 -21 0 -49 -7 -61 -16z m100
-41 c22 -26 30 -59 23 -93 -9 -42 -31 -60 -71 -60 -31 0 -37 4 -50 37 -27 64
2 133 56 133 15 0 34 -8 42 -17z"/>
<path d="M7940 3390 c0 -123 1 -130 20 -130 17 0 20 7 20 50 l0 50 55 0 55 0
0 -50 c0 -43 3 -50 20 -50 19 0 20 7 20 130 0 122 -1 130 -20 130 -16 0 -19
-8 -22 -57 l-3 -58 -52 -3 -53 -3 0 60 c0 54 -2 61 -20 61 -19 0 -20 -7 -20
-130z"/>
<path d="M8190 3500 c0 -17 7 -20 40 -20 l40 0 0 -110 c0 -103 1 -110 20 -110
19 0 20 7 20 110 l0 110 35 0 c28 0 35 4 35 20 0 19 -7 20 -95 20 -88 0 -95
-1 -95 -20z"/>
<path d="M8491 3498 c-5 -13 -25 -63 -44 -113 -19 -49 -38 -98 -42 -107 -6
-14 -2 -18 14 -18 16 0 26 10 37 35 14 33 17 35 63 35 48 0 50 -1 61 -35 8
-24 18 -35 31 -35 24 0 24 4 -7 86 -14 38 -35 93 -46 122 -21 57 -51 71 -67
30z m39 -63 c5 -14 13 -37 16 -50 6 -23 3 -25 -31 -25 -26 0 -36 4 -32 13 2 6
10 29 18 50 7 20 14 37 16 37 2 0 8 -11 13 -25z"/>
<path d="M8701 3475 c18 -25 39 -51 46 -57 19 -15 17 -21 -27 -84 -45 -65 -48
-74 -21 -74 12 0 33 21 57 60 22 33 42 60 47 60 4 0 7 -27 7 -60 0 -53 2 -60
20 -60 18 0 20 7 20 57 l0 57 58 -57 c38 -38 66 -57 82 -57 22 0 17 8 -43 68
l-67 67 62 63 c58 58 61 62 37 62 -18 0 -42 -15 -75 -47 l-49 -48 -3 48 c-3
39 -6 47 -23 47 -16 0 -19 -7 -19 -50 0 -27 -4 -50 -10 -50 -5 0 -26 23 -47
50 -26 35 -44 50 -61 50 -23 0 -23 0 9 -45z"/>
<path d="M9040 3514 c0 -4 21 -46 47 -95 39 -74 44 -91 33 -104 -7 -8 -21 -15
-31 -15 -12 0 -19 -7 -19 -20 0 -36 66 -18 94 25 10 15 33 70 51 121 33 94 33
94 11 94 -19 0 -26 -11 -45 -70 -12 -38 -24 -70 -26 -70 -3 0 -21 32 -40 70
-26 51 -41 70 -55 70 -11 0 -20 -3 -20 -6z"/>
</g>
</svg>
